<svg xmlns="http://www.w3.org/2000/svg" viewBox="0 0 64 64" width="64" height="64">
  <rect width="64" height="64" rx="14" fill="#1A2A5E"/>
  <!-- 명지대 상징: 지혜의 나무 (단순화) -->
  <g fill="none" stroke="#ffffff" stroke-width="3" stroke-linecap="round">
    <line x1="32" y1="50" x2="32" y2="26"/>
    <line x1="32" y1="34" x2="23" y2="27"/>
    <line x1="32" y1="34" x2="41" y2="27"/>
  </g>
  <g fill="#ffffff">
    <ellipse cx="32" cy="18" rx="4.4" ry="5.6"/>
    <ellipse cx="22" cy="22" rx="3.8" ry="5" transform="rotate(-28 22 22)"/>
    <ellipse cx="42" cy="22" rx="3.8" ry="5" transform="rotate(28 42 22)"/>
  </g>
  <g fill="#0072CE">
    <ellipse cx="16" cy="28" rx="3.4" ry="4.4" transform="rotate(-45 16 28)"/>
    <ellipse cx="48" cy="28" rx="3.4" ry="4.4" transform="rotate(45 48 28)"/>
    <ellipse cx="26" cy="14" rx="3" ry="4" transform="rotate(-15 26 14)"/>
    <ellipse cx="38" cy="14" rx="3" ry="4" transform="rotate(15 38 14)"/>
  </g>
</svg>
